<?xml version="1.0" encoding="UTF-8" standalone="no"?>
<!-- Created with Inkscape (http://www.inkscape.org/) -->

<svg
   xmlns:dc="http://purl.org/dc/elements/1.1/"
   xmlns:cc="http://creativecommons.org/ns#"
   xmlns:rdf="http://www.w3.org/1999/02/22-rdf-syntax-ns#"
   xmlns:svg="http://www.w3.org/2000/svg"
   xmlns="http://www.w3.org/2000/svg"
   xmlns:sodipodi="http://sodipodi.sourceforge.net/DTD/sodipodi-0.dtd"
   xmlns:inkscape="http://www.inkscape.org/namespaces/inkscape"
   width="136.74579mm"
   height="75.767563mm"
   viewBox="0 0 136.74579 75.767563"
   version="1.1"
   id="svg8"
   inkscape:version="0.92.4 (5da689c313, 2019-01-14)"
   sodipodi:docname="dessin.svg"
   inkscape:export-filename="C:\Users\parap\Desktop\dessin1.png"
   inkscape:export-xdpi="200.60582"
   inkscape:export-ydpi="200.60582">
  <defs
     id="defs2" />
  <sodipodi:namedview
     id="base"
     pagecolor="#ffffff"
     bordercolor="#666666"
     borderopacity="1.0"
     inkscape:pageopacity="0.0"
     inkscape:pageshadow="2"
     inkscape:zoom="1"
     inkscape:cx="598.93819"
     inkscape:cy="45.434203"
     inkscape:document-units="mm"
     inkscape:current-layer="layer1"
     showgrid="false"
     inkscape:pagecheckerboard="true"
     inkscape:window-width="1920"
     inkscape:window-height="1013"
     inkscape:window-x="-9"
     inkscape:window-y="-9"
     inkscape:window-maximized="1"
     fit-margin-top="0"
     fit-margin-left="0"
     fit-margin-right="0"
     fit-margin-bottom="0" />
  <metadata
     id="metadata5">
    <rdf:RDF>
      <cc:Work
         rdf:about="">
        <dc:format>image/svg+xml</dc:format>
        <dc:type
           rdf:resource="http://purl.org/dc/dcmitype/StillImage" />
        <dc:title></dc:title>
      </cc:Work>
    </rdf:RDF>
  </metadata>
  <g
     inkscape:label="Calque 1"
     inkscape:groupmode="layer"
     id="layer1"
     transform="translate(-30.943477,-32.326803)">
    <path
       id="path3742"
       style="fill:#ffffff;stroke-width:0.26458332"
       d="m 32.759905,32.327668 c -0.782209,0.01161 -1.387512,0.14015 -1.596284,0.391707 -0.355283,0.428088 -0.310013,1.189607 0.353464,5.952609 0.212844,1.527967 0.466178,3.562517 0.562759,4.521171 0.0975,0.967796 0.401677,2.115127 0.684196,2.579688 0.414208,0.681109 0.68022,0.836641 1.428853,0.836641 1.301338,0 2.091415,-0.881898 1.896523,-2.116666 -0.08039,-0.509321 -0.327514,-2.057136 -0.54932,-3.439584 -0.221803,-1.382447 -0.404143,-2.936991 -0.405143,-3.455087 l -0.0021,-0.94206 3.818888,0.114721 c 4.562768,0.137271 5.706112,-0.01685 5.706112,-0.769462 0,-0.866753 -0.771189,-2.096354 -1.48518,-2.367814 -0.366305,-0.139269 -1.714426,-0.253214 -2.995684,-0.253214 -1.601023,0 -2.847393,-0.165492 -3.985802,-0.529167 -1.12702,-0.360039 -2.425618,-0.538408 -3.431316,-0.523483 z m 29.90515,12.480374 c -0.461817,-0.0024 -0.997863,0.06906 -1.606103,0.214974 -1.211588,0.29065 -3.854246,1.93711 -5.048271,3.145028 -0.231693,0.234381 -1.000369,0.902068 -1.707907,1.484149 -6.65535,5.475298 -7.792804,6.88781 -7.792804,9.67641 0,1.33795 0.103925,1.696601 0.649573,2.242241 1.142368,1.14237 3.710347,0.812048 9.272302,-1.192692 1.309687,-0.472059 3.089042,-0.924607 3.954279,-1.005107 l 1.57303,-0.146243 -0.600479,0.768945 c -3.418711,4.37651 -7.963453,7.485171 -11.821499,8.08581 -0.979096,0.152431 -2.15039,0.485584 -2.602426,0.740523 -0.760068,0.42867 -0.820716,0.568228 -0.808736,1.856219 0.0099,1.062958 0.135186,1.484323 0.529167,1.778701 0.71901,0.537231 4.138356,0.355516 5.54333,-0.294555 0.582084,-0.26933 1.903844,-0.879419 2.937288,-1.35599 5.202674,-2.399178 9.159568,-5.964552 11.761039,-10.596252 0.360008,-0.640959 0.515215,-1.422363 0.515215,-2.597775 0,-1.517459 -0.06662,-1.725475 -0.685747,-2.131134 -0.908923,-0.59555 -5.316609,-0.438756 -9.765295,0.347266 -1.74625,0.308538 -3.286829,0.562856 -3.423563,0.565856 -0.423894,0.0082 4.98456,-5.092644 6.632152,-6.254916 0.857866,-0.605179 2.241637,-1.438603 3.075265,-1.852084 1.305745,-0.647639 1.51637,-0.854739 1.518769,-1.496549 0.0048,-1.306312 -0.71312,-1.975916 -2.098579,-1.982825 z m 9.490895,4.73873 c -1.511073,-0.08997 -1.769465,1.207349 -1.21543,4.999694 0.73342,5.02023 0.836946,8.063804 0.338479,9.960633 -0.530397,2.018369 -0.539041,3.496305 -0.03462,5.894213 0.448543,2.132312 0.734727,2.686185 1.698604,3.284554 1.563653,0.9707 2.406571,0.343405 2.406571,-1.791105 0,-1.101559 0.05633,-1.208194 0.64027,-1.208194 0.715441,0 4.18052,1.173777 7.498768,2.539897 2.263354,0.931828 4.188531,1.166694 4.772835,0.582393 0.338245,-0.338251 0.425619,-1.738416 0.152963,-2.448946 -0.232251,-0.605229 -1.061326,-0.985787 -6.357236,-2.918169 -2.574399,-0.93935 -4.772364,-1.800574 -4.884457,-1.914094 -0.112091,-0.11353 0.992997,-1.218734 2.456182,-2.455664 3.577294,-3.024121 3.922758,-3.460771 3.922758,-4.960421 0,-0.75987 -0.163989,-1.396672 -0.4377,-1.69912 -0.872911,-0.964552 -1.543066,-0.617715 -4.426604,2.293916 -1.513229,1.527958 -2.862834,2.778125 -2.999298,2.778125 -0.136467,0 -0.388919,-2.403861 -0.560689,-5.34231 -0.366006,-6.2611 -0.609079,-7.071273 -2.245857,-7.475511 -0.268285,-0.06626 -0.509673,-0.107037 -0.725538,-0.119891 z m 70.42619,7.368543 c -0.50616,-0.01685 -0.99681,0.286252 -1.35444,0.872815 -0.61182,1.00344 -0.70509,3.350625 -0.21756,5.462715 0.24,1.039889 0.23161,1.91399 -0.0372,3.944979 -0.38246,2.889671 -0.0853,5.114809 0.74775,5.601208 0.2399,0.14006 0.88264,0.259033 1.42834,0.263033 0.99235,0.008 0.99222,0.0075 0.99322,-1.116727 0.002,-1.54991 1.05379,-4.413795 2.11253,-5.750554 1.05663,-1.334101 1.19045,-1.187805 1.44694,1.583367 0.21245,2.295329 1.02745,4.211693 1.99575,4.691703 0.80889,0.400978 3.14413,0.434763 4.12998,0.05994 1.05258,-0.400191 1.95543,-1.487081 1.95543,-2.353861 0,-0.71284 -0.0849,-0.766421 -1.70325,-1.071769 -0.95305,-0.179832 -1.89109,-0.529135 -2.1301,-0.793234 -0.26239,-0.28993 -0.60261,-1.633405 -0.88264,-3.484025 -0.27655,-1.827779 -0.66679,-3.374393 -0.99218,-3.933092 -0.48534,-0.83335 -0.66189,-0.928106 -1.86087,-0.998905 -1.22473,-0.0723 -1.41844,0.0046 -2.56625,1.014923 l -1.24179,1.092441 v -1.353924 c 0,-1.39215 -0.56763,-3.145805 -1.13481,-3.506245 -0.22572,-0.143446 -0.45878,-0.217133 -0.68885,-0.224792 z m -46.541861,0.851627 c -1.231694,0.0078 -1.693855,0.765802 -1.838648,2.789494 l -0.134358,1.878439 -1.137915,0.170532 c -1.39161,0.20869 -2.498556,1.028353 -2.498556,1.850533 0,0.61645 0.581285,0.971473 2.146639,1.310513 0.67287,0.145729 0.694714,0.215066 0.819589,2.602425 0.140822,2.692242 0.544306,3.784172 1.722893,4.663281 v 5.3e-4 c 0.404257,0.301537 1.105781,0.551553 1.559076,0.556553 l 0.82424,0.0078 0.136943,-3.241146 c 0.07536,-1.78263 0.224833,-3.453937 0.33228,-3.713985 0.369541,-0.894372 1.725123,-1.341639 4.364588,-1.440739 3.48996,-0.130982 3.70417,-0.193781 3.70417,-1.086239 0,-0.797271 -0.87295,-1.736947 -2.01848,-2.172477 -0.36395,-0.13838 -1.84451,-0.251664 -3.29024,-0.251664 h -2.628781 l -0.0041,-1.521354 c -0.0051,-1.894682 -0.189201,-2.188065 -1.483114,-2.361613 -0.208704,-0.028 -0.400238,-0.04194 -0.576194,-0.04082 z m 35.147211,2.425174 c -3.34254,-0.03661 -6.81137,2.004364 -7.95766,4.828645 -0.53699,1.323041 -0.73869,1.539309 -1.9482,2.084629 -1.87923,0.847251 -5.06977,1.813351 -5.49424,1.66398 -0.19443,-0.06842 0.42198,-0.366646 1.36995,-0.663009 3.40764,-1.065299 4.7752,-2.3691 4.97179,-4.739761 0.10424,-1.256959 0.0421,-1.461109 -0.65785,-2.161109 -0.97924,-0.979239 -2.37095,-1.226013 -4.66328,-0.826823 -2.91432,0.507511 -5.35359,2.337126 -6.29057,4.718577 -0.79666,2.024779 -1.25468,2.449642 -2.79311,2.591572 -2.49903,0.23055 -2.47685,0.215948 -2.47685,1.661398 0,2.03123 0.76147,2.462662 3.30626,1.872753 0.93746,-0.21731 1.13275,-0.173686 1.71979,0.387575 0.36423,0.348239 0.96015,0.751945 1.32395,0.896585 v -5.29e-4 c 1.21709,0.483902 5.27724,0.333269 6.87917,-0.25528 3.72429,-1.36832 3.523,-1.350066 4.65501,-0.417547 l 1.01647,0.83716 h 3.18327 c 2.75588,-2.65e-4 3.35075,-0.08029 4.42609,-0.595313 0.68323,-0.327231 1.33809,-0.596074 1.45521,-0.596863 0.11713,-7.93e-4 0.52677,-0.165113 0.91054,-0.365352 0.38376,-0.200232 1.31198,-0.568272 2.0624,-0.817523 1.79979,-0.5978 3.66637,-1.655874 3.99097,-2.262394 0.14333,-0.267808 0.26045,-0.851982 0.26045,-1.298112 0,-0.792189 -0.0293,-0.810601 -1.25677,-0.8046 -1.29527,0.0066 -3.75312,0.667898 -7.83105,2.106848 -1.28749,0.4543 -2.53763,0.782354 -2.77812,0.729154 -0.24048,-0.05323 0.45522,-0.387175 1.54616,-0.742074 1.52002,-0.494469 2.27739,-0.927814 3.24114,-1.853634 1.23653,-1.1879 1.25781,-1.235607 1.25781,-2.856156 0,-2.022239 -0.59745,-2.780445 -2.39779,-3.043224 -0.34036,-0.04968 -0.68516,-0.07579 -1.03094,-0.07958 z m -14.46943,3.981981 -0.0935,0.40535 c -0.63686,0.519179 -1.05833,0.688417 -1.05833,0.425297 0,-0.06902 0.16979,-0.647978 0.64273,-0.878759 z m 12.43322,0.05675 c 0.0269,0.0013 0.0989,0.177932 -0.004,0.297953 -0.0475,0.05514 -0.004,0.0083 -0.004,0.0083 -0.54736,0.437029 -0.87643,0.552357 -0.87643,0.479557 0,-0.07276 0.021,-0.593755 0.31201,-0.749565 0.21831,-0.116883 0.4924,-0.04055 0.57301,-0.03621 z m 33.60224,7.258251 c -0.59385,-0.01389 -1.25453,0.134178 -1.52756,0.407209 -0.54579,0.545701 -0.54815,2.797495 -0.004,3.943945 0.22653,0.477372 0.74802,1.924439 1.1591,3.21531 l 0.74776,2.346626 -1.22577,0.161748 c -0.67399,0.08888 -2.41376,0.306657 -3.86643,0.484206 -1.45268,0.177551 -2.97073,0.51762 -3.37343,0.75551 -0.90953,0.537271 -0.96427,1.489075 -0.13695,2.382284 0.58389,0.63041 0.64858,0.638757 3.37344,0.438216 1.52796,-0.11241 4.01196,-0.176942 5.52008,-0.143144 1.66672,0.03735 3.04152,-0.06248 3.50572,-0.254765 0.688,-0.28497 0.76378,-0.43874 0.76378,-1.553909 0,-0.680841 -0.10007,-1.351076 -0.2222,-1.489315 -0.12216,-0.13825 -0.66799,-1.680414 -1.21337,-3.426664 -1.52615,-4.886571 -2.24328,-6.831748 -2.60191,-7.059517 -0.20965,-0.133149 -0.54182,-0.199409 -0.89813,-0.20774 z M 75.998607,91.354555 c -0.03189,0.0042 -0.07806,0.01212 -0.137459,0.02379 0.03239,-5.29e-4 0.06476,-5.29e-4 0.09715,-0.0011 0.0471,-0.01342 0.05766,-0.01807 0.06563,-0.02223 -0.0084,-1.6e-5 -0.01691,-5.29e-4 -0.02532,-5.29e-4 z m -0.03721,0.0016 c -0.105355,0.0013 -0.210368,0.0074 -0.314709,0.02479 0.06856,-0.0011 0.137104,-0.0011 0.205671,-0.0021 -0.02683,0.0056 0.125749,-0.02635 0.109038,-0.02273 z"
       inkscape:connector-curvature="0"
       sodipodi:nodetypes="ccsccssccccscscccccccscccccsccccccscsccccccscccsscccsccsccscccccccscccccccscccccccscccccccscscccccccscsccccccccscccccsscccccccccccccscccccscccccscccscssccccccccscccccscsccccccccccccc" />
    <path
       style="fill:#000000;stroke-width:0.26458332"
       d=""
       id="path3730"
       inkscape:connector-curvature="0" />
    <path
       style="fill:#000000;stroke-width:0.26458332"
       d=""
       id="path3726"
       inkscape:connector-curvature="0" />
    <path
       style="fill:#000000;stroke-width:0.26458332"
       d=""
       id="path3724"
       inkscape:connector-curvature="0" />
    <text
       xml:space="preserve"
       style="font-style:normal;font-variant:normal;font-weight:normal;font-stretch:normal;font-size:20.65024185px;line-height:1.25;font-family:'Roboto Slab';-inkscape-font-specification:'Roboto Slab';letter-spacing:0px;word-spacing:0px;fill:#ffffff;fill-opacity:1;stroke:none;stroke-width:0.51625603;"
       x="65.850906"
       y="103.68804"
       id="text3753"><tspan
         sodipodi:role="line"
         id="tspan3751"
         x="65.850906"
         y="103.68804"
         style="font-style:normal;font-variant:normal;font-weight:normal;font-stretch:normal;font-family:'Roboto Slab';-inkscape-font-specification:'Roboto Slab';stroke-width:0.51625603;fill:#ffffff;">factory</tspan></text>
  </g>
</svg>
