<svg width="27" height="29" viewBox="0 0 27 29" fill="none" xmlns="http://www.w3.org/2000/svg">
<path d="M6 28.2083H0.375V8.625H6V28.2083ZM26.625 28.2083H21V17.7469C21 15.0209 20.07 13.6638 18.2269 13.6638C16.7663 13.6638 15.84 14.4236 15.375 15.9453V28.2083H9.75C9.75 28.2083 9.825 10.5833 9.75 8.625H14.19L14.5331 12.5417H14.6494C15.8025 10.5833 17.6456 9.25558 20.1731 9.25558C22.095 9.25558 23.6494 9.81371 24.8362 11.2159C26.0306 12.62 26.625 14.5039 26.625 17.1496V28.2083Z" fill="#808080"/>
<path d="M3.1875 6.66667C4.79258 6.66667 6.09375 5.35151 6.09375 3.72917C6.09375 2.10684 4.79258 0.791672 3.1875 0.791672C1.58242 0.791672 0.28125 2.10684 0.28125 3.72917C0.28125 5.35151 1.58242 6.66667 3.1875 6.66667Z" fill="#808080"/>
</svg>
